<svg width="40" height="40" viewBox="0 0 40 40" fill="none" xmlns="http://www.w3.org/2000/svg">
<path d="M10.4907 27.6418C4.14455 22.3168 3.31679 12.8555 8.64181 6.50933V6.50933C13.9668 0.163214 23.4282 -0.664546 29.7743 4.66048V4.66048C36.1204 9.98551 36.9482 19.4468 31.6231 25.793L21.9813 37.2836L10.4907 27.6418Z" fill="#0B0F64"/>
<path d="M18 37H26V40H18V37Z" fill="#0B0F64"/>
<path d="M30.85 8.54L26.36 23H23.93L20.77 13.12C20.6833 12.88 20.6033 12.5867 20.53 12.24C20.49 12.4067 20.45 12.5633 20.41 12.71C20.37 12.8567 20.3267 12.9933 20.28 13.12L17.09 23H14.65L10.17 8.54H12.42C12.6533 8.54 12.8467 8.59667 13 8.71C13.16 8.81667 13.2667 8.96333 13.32 9.15L15.78 17.8C15.8333 18.0133 15.8833 18.2467 15.93 18.5C15.9833 18.7467 16.0367 19.0067 16.09 19.28C16.1433 19 16.2 18.7367 16.26 18.49C16.3267 18.2433 16.3967 18.0133 16.47 17.8L19.31 9.15C19.3633 8.99667 19.4667 8.85667 19.62 8.73C19.78 8.60333 19.9733 8.54 20.2 8.54H20.99C21.2233 8.54 21.4133 8.59667 21.56 8.71C21.7067 8.82333 21.8167 8.97 21.89 9.15L24.72 17.8C24.86 18.2133 24.9867 18.69 25.1 19.23C25.1867 18.7033 25.2833 18.2267 25.39 17.8L27.85 9.15C27.89 8.98333 27.99 8.84 28.15 8.72C28.3167 8.6 28.5133 8.54 28.74 8.54H30.85Z" fill="white"/>
</svg>
